<svg width="96.635" height="25.666" viewBox="0 0 96.635 25.666" xmlns="http://www.w3.org/2000/svg"><g id="svgGroup" stroke-linecap="round" fill-rule="evenodd" font-size="9pt" stroke="#000000" stroke-width="0.50mm" fill="none" style="stroke:#000000;stroke-width:0.50mm;fill: #ffffff;"><path d="M 46.995 10.338 L 46.61 15.098 L 46.82 14.608 A 1.622 1.622 0 0 1 46.907 14.446 Q 47.119 14.089 47.728 13.281 A 49.616 49.616 0 0 1 47.835 13.138 A 0.171 0.171 0 0 1 47.852 13.087 Q 47.971 12.815 48.92 11.283 L 49.515 10.583 L 49.83 10.093 A 4.074 4.074 0 0 1 50.149 9.864 Q 50.504 9.636 50.789 9.584 A 0.899 0.899 0 0 1 50.95 9.568 A 2.173 2.173 0 0 1 51.269 9.545 Q 51.973 9.545 52.751 9.989 A 4.933 4.933 0 0 1 52.98 10.128 Q 53.217 10.162 53.585 10.622 A 4.385 4.385 0 0 1 53.61 10.653 A 1.307 1.307 0 0 1 54.135 11.612 Q 54.149 11.767 54.136 11.937 A 2.241 2.241 0 0 1 54.135 11.948 A 0.416 0.416 0 0 1 54.132 11.993 Q 54.127 12.038 54.114 12.099 A 2.04 2.04 0 0 1 54.1 12.158 Q 53.435 17.618 53.4 19.806 A 22.483 22.483 0 0 0 53.397 20.166 Q 53.397 22.116 53.75 23.463 Q 53.968 24.417 53.295 24.925 A 2.04 2.04 0 0 1 52.84 25.178 A 0.698 0.698 0 0 1 52.623 25.272 Q 52.359 25.339 51.954 25.267 A 3.196 3.196 0 0 1 51.86 25.248 A 3.618 3.618 0 0 1 51.549 25.236 Q 51.181 25.204 50.968 25.091 A 0.885 0.885 0 0 1 50.78 24.953 Q 50.618 24.802 50.451 24.535 A 3.978 3.978 0 0 1 50.355 24.373 L 50.18 23.673 Q 50.081 23.476 50.052 23.173 A 2.829 2.829 0 0 1 50.04 22.903 L 49.9 21.888 A 0.188 0.188 0 0 0 49.911 21.838 Q 49.934 21.673 49.935 21.02 A 39.124 39.124 0 0 0 49.935 20.978 L 49.97 20.068 Q 49.879 19.644 49.972 18.511 A 23.817 23.817 0 0 1 50.005 18.143 L 50.075 16.638 L 50.075 15.763 A 0.088 0.088 0 0 0 50.079 15.742 Q 50.087 15.641 49.926 15.372 A 4.063 4.063 0 0 0 49.865 15.273 A 2.012 2.012 0 0 0 49.442 15.76 Q 48.837 16.672 48.149 18.897 A 42.144 42.144 0 0 0 47.835 19.963 L 46.925 22.763 Q 46.404 24.616 45.811 25.056 A 0.691 0.691 0 0 1 45.56 25.178 L 45.175 25.248 Q 44.685 25.248 43.845 24.968 A 3.205 3.205 0 0 1 43.48 24.486 Q 43.18 23.992 43.18 23.498 A 0.446 0.446 0 0 0 43.227 23.296 Q 43.227 23.255 43.22 23.212 A 0.638 0.638 0 0 0 43.215 23.183 Q 43.127 22.801 43.237 22.17 A 6.054 6.054 0 0 1 43.285 21.923 A 0.572 0.572 0 0 1 43.265 21.843 Q 43.258 21.801 43.254 21.751 A 1.429 1.429 0 0 1 43.25 21.643 L 43.285 21.118 A 0.685 0.685 0 0 1 43.257 21.021 Q 43.201 20.777 43.145 20.126 A 24.648 24.648 0 0 1 43.145 20.121 Q 43.081 19.375 43.133 18.96 A 2.002 2.002 0 0 1 43.145 18.878 Q 43.086 18.76 43.277 18.166 A 10.5 10.5 0 0 1 43.355 17.933 Q 43.075 17.513 43.04 16.988 Q 42.9 15.553 42.953 14.836 A 19.953 19.953 0 0 0 42.998 13.973 A 16.336 16.336 0 0 0 43.005 13.488 Q 42.942 12.924 42.964 12.163 A 15.419 15.419 0 0 1 42.97 11.983 L 43.215 9.148 L 43.46 7.118 Q 43.46 6.923 43.359 6.56 A 6.533 6.533 0 0 0 43.303 6.366 Q 43.145 5.858 43.215 5.158 Q 43.276 4.551 43.35 4.325 A 0.59 0.59 0 0 1 43.373 4.266 A 1.066 1.066 0 0 0 43.413 4.156 Q 43.494 3.906 43.625 3.282 A 30.623 30.623 0 0 0 43.635 3.233 Q 43.635 2.627 43.74 2.283 A 1.263 1.263 0 0 1 43.775 2.183 L 43.985 1.553 A 0.304 0.304 0 0 1 44.044 1.426 Q 44.215 1.186 44.873 0.763 A 11.385 11.385 0 0 1 44.895 0.748 L 45.28 0.748 Q 46.448 0.838 47.078 1.108 A 2.129 2.129 0 0 1 47.275 1.203 Q 47.553 1.377 47.417 2.413 A 7.433 7.433 0 0 1 47.415 2.428 A 189.122 189.122 0 0 1 47.39 2.94 Q 47.338 3.964 47.31 4.248 Q 47.277 4.579 47.15 6.998 A 803.855 803.855 0 0 0 47.135 7.293 A 677.437 677.437 0 0 0 47.102 7.931 Q 47.002 9.897 46.995 10.292 A 2.918 2.918 0 0 0 46.995 10.338 Z M 8.635 5.998 L 8.6 5.998 A 3.311 3.311 0 0 1 8.572 6.4 Q 8.502 6.973 8.25 7.853 A 3.112 3.112 0 0 1 8.239 8.096 Q 8.217 8.374 8.151 8.785 A 19.395 19.395 0 0 1 8.075 9.218 Q 8.075 9.498 7.97 9.778 A 1.219 1.219 0 0 0 7.919 9.961 Q 7.878 10.161 7.868 10.454 A 5.846 5.846 0 0 0 7.865 10.653 Q 7.635 11.999 7.652 12.206 A 0.142 0.142 0 0 0 7.655 12.228 Q 7.69 12.368 7.655 12.613 Q 7.62 12.858 7.515 13.346 A 17.477 17.477 0 0 1 7.515 13.348 A 4.375 4.375 0 0 0 7.443 13.811 Q 7.418 14.05 7.412 14.32 A 7.966 7.966 0 0 0 7.41 14.503 Q 7.41 15.168 7.235 15.693 L 7.235 16.078 A 15.125 15.125 0 0 1 7.25 16.404 Q 7.284 17.409 7.148 17.863 Q 7.036 18.235 7.003 18.528 A 2.068 2.068 0 0 0 6.99 18.756 A 2.27 2.27 0 0 1 6.979 18.965 Q 6.957 19.204 6.889 19.547 A 12.48 12.48 0 0 1 6.815 19.893 Q 6.653 20.608 6.701 21.565 A 9.516 9.516 0 0 0 6.71 21.713 L 6.92 21.713 Q 7.795 21.643 7.848 21.661 Q 7.897 21.678 8.278 21.584 A 11.792 11.792 0 0 0 8.32 21.573 L 8.88 21.608 L 9.23 21.608 Q 9.335 21.608 9.685 21.871 A 2.783 2.783 0 0 1 9.892 22.041 Q 10.081 22.214 10.175 22.378 A 0.863 0.863 0 0 1 10.262 22.479 Q 10.402 22.671 10.333 22.851 A 0.486 0.486 0 0 1 10.265 22.965 Q 10.092 23.193 9.545 23.603 L 8.88 23.813 A 0.431 0.431 0 0 1 8.811 23.867 Q 8.68 23.953 8.39 24.058 A 2.906 2.906 0 0 1 8.138 24.138 Q 8.009 24.172 7.894 24.187 A 1.32 1.32 0 0 1 7.725 24.198 Q 7.096 24.335 6.873 24.621 A 0.574 0.574 0 0 0 6.78 24.793 Q 6.64 25.073 5.1 25.003 L 3.91 25.003 L 3.245 25.213 A 3.671 3.671 0 0 1 2.786 25.365 Q 2.19 25.516 1.705 25.388 Q 1.04 25.213 0.813 25.126 A 1.201 1.201 0 0 1 0.654 25.05 Q 0.482 24.952 0.27 24.776 A 0.924 0.924 0 0 1 0.125 24.627 Q -0.031 24.422 0.008 24.181 A 4.217 4.217 0 0 1 0.041 23.996 Q 0.104 23.691 0.235 23.218 A 19.701 19.701 0 0 1 0.495 23.008 Q 0.818 22.751 1.003 22.632 A 1.688 1.688 0 0 1 1.075 22.588 A 160.047 160.047 0 0 0 1.662 22.404 Q 2.84 22.031 3.21 21.888 A 29.947 29.947 0 0 0 3.208 21.489 Q 3.197 20.694 3.14 20.523 A 0.097 0.097 0 0 0 3.179 20.465 Q 3.252 20.271 3.341 19.454 A 33.718 33.718 0 0 0 3.385 19.018 A 0.167 0.167 0 0 0 3.389 18.991 Q 3.4 18.852 3.254 18.467 A 6.595 6.595 0 0 0 3.21 18.353 L 3.21 18.143 A 7.836 7.836 0 0 0 3.252 17.532 Q 3.266 17.053 3.214 16.622 A 5.118 5.118 0 0 0 3.175 16.358 A 0.45 0.45 0 0 1 3.177 16.332 Q 3.193 16.175 3.315 15.133 A 0.3 0.3 0 0 0 3.367 15.035 Q 3.449 14.788 3.342 14.162 A 7.312 7.312 0 0 0 3.315 14.013 A 33.588 33.588 0 0 1 3.383 13.698 Q 3.481 13.252 3.56 12.963 L 3.595 12.473 A 1.079 1.079 0 0 1 3.602 12.365 Q 3.629 12.12 3.749 11.499 A 46.464 46.464 0 0 1 3.805 11.213 L 3.805 10.863 L 3.875 10.583 Q 4.481 8.09 4.699 6.894 A 18.33 18.33 0 0 0 4.715 6.803 A 7.836 7.836 0 0 1 4.617 6.827 Q 4.472 6.862 4.404 6.87 A 0.317 0.317 0 0 1 4.365 6.873 L 3.21 7.048 Q 2.032 7.359 1.101 6.652 A 3.062 3.062 0 0 1 0.865 6.453 A 3.013 3.013 0 0 1 0.631 6.085 Q 0.197 5.269 0.65 4.634 A 1.676 1.676 0 0 1 0.83 4.423 A 2.086 2.086 0 0 1 1.303 4.122 Q 1.762 3.903 2.44 3.793 A 35.38 35.38 0 0 0 2.822 3.664 Q 3.446 3.448 3.665 3.338 Q 4.015 3.338 5.31 2.568 Q 6.463 2.413 6.756 2.396 A 1.052 1.052 0 0 1 6.815 2.393 L 8.46 2.183 A 1.631 1.631 0 0 1 8.579 2.175 Q 8.869 2.164 9.3 2.236 Q 9.757 2.312 9.896 2.428 A 0.214 0.214 0 0 1 9.93 2.463 A 3.625 3.625 0 0 1 10.268 2.56 Q 10.441 2.619 10.636 2.699 A 8.936 8.936 0 0 1 11.05 2.883 L 11.89 3.653 A 20.563 20.563 0 0 1 12.115 3.982 Q 12.323 4.29 12.45 4.51 A 3.642 3.642 0 0 1 12.555 4.703 A 1.227 1.227 0 0 1 12.574 4.806 Q 12.627 5.177 12.38 5.316 A 1.219 1.219 0 0 1 12.014 5.453 A 1.106 1.106 0 0 1 11.803 5.473 A 5.524 5.524 0 0 0 11.657 5.476 Q 11.269 5.487 10.245 5.543 Q 9.44 5.718 8.635 5.998 Z M 22.39 4.808 L 22.39 5.018 Q 22.32 5.648 22.32 6.313 A 19.548 19.548 0 0 1 22.285 7.512 A 14.331 14.331 0 0 1 22.18 8.588 Q 22.065 9.421 22.021 9.818 A 9.795 9.795 0 0 0 22.005 9.971 Q 21.97 10.338 21.9 10.688 L 21.9 10.933 A 2.997 2.997 0 0 1 21.715 11.957 A 3.553 3.553 0 0 1 21.62 12.193 L 21.515 13.768 L 21.375 17.093 L 21.375 18.843 Q 21.375 19.977 21.273 20.221 A 0.138 0.138 0 0 1 21.235 20.278 L 21.27 21.188 L 21.27 21.573 L 21.235 21.993 A 0.42 0.42 0 0 1 21.233 22.04 Q 21.227 22.087 21.21 22.11 A 0.053 0.053 0 0 1 21.165 22.133 Q 21.235 22.553 20.833 23.026 Q 20.43 23.498 19.835 23.638 L 19.205 23.743 A 2.926 2.926 0 0 0 19.128 23.745 Q 19.043 23.747 18.929 23.754 A 10.348 10.348 0 0 0 18.82 23.761 A 1.352 1.352 0 0 1 18.736 23.764 Q 18.643 23.765 18.561 23.752 A 0.755 0.755 0 0 1 18.4 23.708 A 2.394 2.394 0 0 1 18.116 23.572 A 2.708 2.708 0 0 1 18.05 23.533 A 0.863 0.863 0 0 1 17.776 23.264 Q 17.695 23.143 17.636 22.983 A 2.121 2.121 0 0 1 17.56 22.728 A 0.579 0.579 0 0 1 17.515 22.608 Q 17.399 22.202 17.141 20.599 A 138.66 138.66 0 0 1 17.14 20.593 Q 17.14 20.308 17.108 19.926 A 14.628 14.628 0 0 0 17.07 19.543 L 17.175 18.703 L 17.175 18.038 A 4.467 4.467 0 0 1 17.184 17.748 Q 17.21 17.347 17.315 17.163 A 0.243 0.243 0 0 1 17.281 17.08 Q 17.229 16.844 17.475 16.286 A 5.358 5.358 0 0 1 17.49 16.253 A 0.471 0.471 0 0 1 17.414 16.1 Q 17.31 15.757 17.489 15.001 A 7.318 7.318 0 0 1 17.525 14.853 Q 17.403 14.458 17.493 14.301 A 0.197 0.197 0 0 1 17.525 14.258 A 0.793 0.793 0 0 0 17.552 14.14 Q 17.585 13.941 17.593 13.543 A 13.742 13.742 0 0 0 17.595 13.278 L 17.63 12.928 A 8.52 8.52 0 0 1 17.695 11.856 A 6.708 6.708 0 0 1 17.84 11.073 A 0.16 0.16 0 0 1 17.82 11.028 Q 17.786 10.906 17.829 10.588 A 4.492 4.492 0 0 1 17.84 10.513 A 8.442 8.442 0 0 0 17.888 10.148 Q 17.91 9.944 17.927 9.714 A 16.169 16.169 0 0 0 17.945 9.428 L 17.945 9.183 A 15.749 15.749 0 0 0 17.975 8.5 A 18.922 18.922 0 0 0 17.98 8.063 L 18.015 7.748 Q 18.015 7.538 18.103 6.908 A 33.544 33.544 0 0 0 18.219 5.967 A 38.968 38.968 0 0 0 18.26 5.578 L 18.19 5.578 A 105.825 105.825 0 0 1 16.9 5.923 Q 14.365 6.582 13.663 6.593 A 1.488 1.488 0 0 1 13.64 6.593 L 13.045 6.628 A 3.461 3.461 0 0 1 12.272 6.538 A 4.142 4.142 0 0 1 11.96 6.453 A 0.523 0.523 0 0 1 11.784 6.303 Q 11.666 6.152 11.584 5.883 A 2.674 2.674 0 0 1 11.54 5.718 Q 11.54 5.031 11.72 4.567 A 1.559 1.559 0 0 1 12.048 4.038 A 2.197 2.197 0 0 1 12.427 3.733 Q 12.971 3.378 13.955 3.058 Q 14.285 3.025 17.857 1.746 A 388.447 388.447 0 0 0 18.295 1.588 L 19.8 1.238 Q 20.22 1.098 21.13 1.098 Q 21.827 1.098 22.349 0.965 A 3.009 3.009 0 0 0 22.653 0.871 A 6.804 6.804 0 0 1 23.466 0.628 A 8.306 8.306 0 0 1 24 0.521 A 214.661 214.661 0 0 0 25.142 0.327 A 245.935 245.935 0 0 0 25.54 0.258 A 0.827 0.827 0 0 1 25.688 0.221 Q 26.096 0.154 26.94 0.328 A 0.602 0.602 0 0 1 27.161 0.379 Q 27.535 0.53 28.165 1.133 L 28.375 1.623 A 0.669 0.669 0 0 0 28.385 1.742 Q 28.407 1.865 28.48 1.938 Q 28.584 2.637 28.304 2.972 A 0.75 0.75 0 0 1 28.06 3.163 Q 27.851 3.268 27.329 3.442 A 19.875 19.875 0 0 1 27.325 3.443 Q 26.625 3.443 23.825 4.143 A 0.915 0.915 0 0 0 23.739 4.15 Q 23.51 4.176 22.778 4.295 A 114.994 114.994 0 0 0 22.425 4.353 L 22.39 4.808 Z M 91.305 9.323 L 91.375 9.323 A 3.91 3.91 0 0 1 92.13 9.22 Q 92.579 9.201 93.075 9.272 A 6.844 6.844 0 0 1 93.703 9.393 Q 94.605 9.61 95.135 10.059 A 2.091 2.091 0 0 1 95.54 10.513 A 5.563 5.563 0 0 1 95.733 10.916 Q 95.916 11.339 96.1 11.913 A 14.656 14.656 0 0 1 96.284 12.484 Q 96.52 13.278 96.52 13.698 A 4.513 4.513 0 0 1 96.618 14.303 Q 96.67 14.871 96.555 15.378 L 96.52 15.728 A 0.253 0.253 0 0 1 96.487 15.851 Q 96.464 15.892 96.426 15.934 A 0.718 0.718 0 0 1 96.345 16.008 A 0.549 0.549 0 0 1 95.992 16.133 A 0.651 0.651 0 0 1 95.943 16.131 Q 95.764 16.117 95.618 16.233 A 0.652 0.652 0 0 0 95.54 16.306 Q 95.398 16.463 95.011 16.492 A 2.519 2.519 0 0 1 94.823 16.498 Q 94.448 16.498 94.316 16.349 A 0.291 0.291 0 0 1 94.245 16.183 A 0.328 0.328 0 0 1 94.187 16.156 Q 94.095 16.103 93.945 15.968 A 3.906 3.906 0 0 1 93.913 15.938 Q 93.713 15.755 93.689 15.651 A 0.119 0.119 0 0 1 93.685 15.623 L 93.51 15.378 A 0.11 0.11 0 0 0 93.5 15.337 Q 93.473 15.272 93.37 15.168 Q 93.055 14.538 93.125 14.188 Q 93.3 13.278 93.23 13.208 A 1.701 1.701 0 0 0 93.087 12.536 A 2.335 2.335 0 0 0 92.88 12.158 Q 92.845 12.123 92.758 12.106 Q 92.67 12.088 92.53 12.053 A 1.486 1.486 0 0 0 92.505 11.973 Q 92.465 11.858 92.425 11.824 A 0.053 0.053 0 0 0 92.39 11.808 A 0.732 0.732 0 0 0 92.209 11.89 Q 92.055 11.985 91.888 12.168 A 2.524 2.524 0 0 0 91.865 12.193 Q 91.375 13.558 91.27 14.013 L 91.06 16.148 L 91.06 17.758 A 13.092 13.092 0 0 0 91.091 18.197 Q 91.151 18.869 91.266 19.159 A 0.606 0.606 0 0 0 91.34 19.298 A 0.471 0.471 0 0 0 91.348 19.38 Q 91.372 19.511 91.46 19.739 A 5.086 5.086 0 0 0 91.48 19.788 Q 91.511 20.186 92.049 21.118 A 15.474 15.474 0 0 0 92.215 21.398 L 92.39 21.608 A 1.046 1.046 0 0 0 92.493 21.823 Q 92.577 21.954 92.693 22.023 A 0.561 0.561 0 0 0 92.985 22.098 A 0.555 0.555 0 0 0 93.232 22.03 Q 93.609 21.839 94.175 21.118 A 0.05 0.05 0 0 1 94.173 21.105 Q 94.168 20.991 94.509 20.463 A 14.755 14.755 0 0 1 94.63 20.278 Q 95.088 19.657 96.035 19.739 A 2.917 2.917 0 0 1 96.17 19.753 A 0.694 0.694 0 0 1 96.369 19.813 Q 96.579 19.915 96.617 20.163 A 0.769 0.769 0 0 1 96.625 20.278 A 0.711 0.711 0 0 1 96.629 20.33 Q 96.642 20.687 96.415 21.853 Q 96.065 22.203 96.065 22.553 A 30.238 30.238 0 0 0 96.008 22.702 Q 95.86 23.088 95.828 23.208 A 0.223 0.223 0 0 0 95.82 23.253 Q 95.733 23.253 95.646 23.325 A 0.522 0.522 0 0 0 95.61 23.358 L 95.435 23.708 A 0.209 0.209 0 0 0 95.365 23.72 Q 95.304 23.741 95.275 23.805 A 0.254 0.254 0 0 0 95.26 23.848 A 5.178 5.178 0 0 1 95.124 24.003 Q 94.926 24.219 94.811 24.28 A 0.171 0.171 0 0 1 94.735 24.303 A 0.224 0.224 0 0 1 94.661 24.349 Q 94.539 24.399 94.277 24.407 A 3.432 3.432 0 0 1 94.175 24.408 Q 93.681 24.616 93.381 24.67 A 1.072 1.072 0 0 1 93.195 24.688 L 92.6 24.723 L 92.215 24.583 L 91.9 24.548 A 3.207 3.207 0 0 0 91.698 24.472 Q 91.456 24.389 91.295 24.389 A 0.56 0.56 0 0 0 91.253 24.391 Q 91.026 24.408 90.921 24.356 A 0.258 0.258 0 0 1 90.92 24.356 Q 90.833 24.312 90.697 24.208 A 3.599 3.599 0 0 1 90.64 24.163 A 5.973 5.973 0 0 0 90.493 24.045 Q 90.201 23.816 90.1 23.814 A 0.089 0.089 0 0 0 90.098 23.813 Q 89.984 23.813 89.735 23.633 A 3.077 3.077 0 0 1 89.695 23.603 A 1.102 1.102 0 0 1 89.456 23.515 A 0.862 0.862 0 0 1 89.24 23.358 L 89.1 23.008 A 0.765 0.765 0 0 0 89.112 22.96 Q 89.154 22.766 89.037 22.73 A 0.157 0.157 0 0 0 89.03 22.728 A 1.848 1.848 0 0 1 88.873 22.722 Q 88.6 22.699 88.523 22.587 A 0.169 0.169 0 0 1 88.505 22.553 L 88.295 22.273 Q 88.295 21.993 88.015 21.538 L 87.595 20.278 A 0.117 0.117 0 0 1 87.563 20.218 Q 87.55 20.151 87.592 20.041 A 0.762 0.762 0 0 1 87.595 20.033 L 87.595 19.403 L 87.175 16.673 L 87.175 16.183 Q 87.46 15.139 87.487 15.01 A 0.119 0.119 0 0 0 87.49 14.993 Q 87.455 14.223 87.84 13.628 A 2.158 2.158 0 0 1 87.984 12.869 Q 88.087 12.593 88.264 12.311 A 3.781 3.781 0 0 1 88.295 12.263 Q 88.295 11.808 88.75 11.493 L 88.75 11.423 A 0.394 0.394 0 0 1 88.78 11.287 Q 88.877 11.031 89.293 10.548 A 28.36 28.36 0 0 0 89.479 10.329 Q 89.828 9.916 89.898 9.792 A 0.315 0.315 0 0 0 89.905 9.778 A 20.101 20.101 0 0 1 90.175 9.621 Q 90.599 9.38 90.814 9.291 A 1.035 1.035 0 0 1 90.92 9.253 A 5.157 5.157 0 0 0 91.042 9.282 Q 91.199 9.318 91.281 9.323 A 0.407 0.407 0 0 0 91.305 9.323 Z M 72.195 5.228 L 72.44 3.163 L 72.475 2.078 A 1.902 1.902 0 0 1 72.492 1.815 Q 72.53 1.547 72.65 1.378 L 73 0.888 A 25.748 25.748 0 0 1 73.331 0.635 Q 73.826 0.263 74.079 0.12 A 1.093 1.093 0 0 1 74.225 0.048 Q 74.467 -0.042 74.904 0.037 A 3.361 3.361 0 0 1 75.048 0.066 Q 75.488 0.165 75.64 0.253 A 0.267 0.267 0 0 1 75.695 0.293 L 76.08 0.608 A 0.605 0.605 0 0 1 76.295 0.802 Q 76.395 0.952 76.395 1.168 A 0.986 0.986 0 0 1 76.447 1.236 Q 76.558 1.396 76.5 1.483 A 0.603 0.603 0 0 0 76.42 1.675 Q 76.22 2.35 75.851 5.21 A 160.055 160.055 0 0 0 75.8 5.613 L 75.52 10.373 L 75.345 11.318 Q 75.345 11.752 75.377 11.836 A 0.08 0.08 0 0 0 75.38 11.843 L 75.38 12.473 Q 75.31 13.173 75.24 13.348 Q 75.24 13.513 75.178 13.707 A 1.732 1.732 0 0 1 75.17 13.733 A 0.13 0.13 0 0 1 75.197 13.782 Q 75.24 13.905 75.24 14.276 A 3.32 3.32 0 0 1 75.236 14.453 Q 75.219 14.77 75.135 14.853 A 9.059 9.059 0 0 0 75.072 15.599 A 7.727 7.727 0 0 0 75.065 15.921 A 6.446 6.446 0 0 0 75.123 16.769 A 7.292 7.292 0 0 0 75.153 16.971 Q 75.24 17.513 75.205 18.038 L 75.345 19.368 L 75.345 19.893 A 15.589 15.589 0 0 1 75.382 20.263 Q 75.413 20.619 75.415 20.873 A 4.419 4.419 0 0 1 75.415 20.908 L 75.59 22.728 L 75.73 23.673 A 2.388 2.388 0 0 1 75.767 24.089 A 2.26 2.26 0 0 1 75.643 24.828 A 1.735 1.735 0 0 1 75.519 25.11 Q 75.342 25.428 75.065 25.528 A 1.73 1.73 0 0 1 74.39 25.666 Q 73.769 25.666 73.087 25.226 A 4.581 4.581 0 0 1 72.685 24.933 L 72.405 24.933 Q 72.203 24.703 72.072 24.329 A 2.993 2.993 0 0 1 72.02 24.163 Q 71.748 24.027 71.773 23.693 A 0.823 0.823 0 0 1 71.775 23.673 A 1.153 1.153 0 0 0 71.781 23.559 A 0.953 0.953 0 0 0 71.635 23.043 A 1.575 1.575 0 0 1 71.543 22.876 Q 71.504 22.793 71.483 22.717 A 0.623 0.623 0 0 1 71.46 22.553 A 5.072 5.072 0 0 0 71.447 22.175 Q 71.432 21.981 71.402 21.811 A 2.951 2.951 0 0 0 71.39 21.748 L 71.425 21.468 Q 71.32 21.363 71.32 21.153 L 71.25 20.523 L 71.25 20.243 A 7.065 7.065 0 0 0 71.249 20.118 Q 71.246 19.938 71.233 19.858 Q 71.218 19.774 71.283 19.601 A 2.014 2.014 0 0 1 71.32 19.508 A 0.208 0.208 0 0 1 71.29 19.443 Q 71.234 19.249 71.273 18.651 A 11.773 11.773 0 0 1 71.285 18.493 Q 71.467 16.161 71.491 15.087 A 13.439 13.439 0 0 0 71.495 14.783 L 71.53 13.943 L 71.53 12.928 Q 71.565 12.088 71.583 10.793 A 27.105 27.105 0 0 1 71.588 10.488 Q 71.608 9.699 71.669 9.474 A 0.191 0.191 0 0 1 71.705 9.393 L 71.67 9.078 A 7.435 7.435 0 0 1 71.696 8.494 Q 71.744 7.884 71.884 7.061 A 27.344 27.344 0 0 1 71.933 6.786 A 194.785 194.785 0 0 0 71.994 6.444 Q 72.177 5.421 72.193 5.253 A 0.279 0.279 0 0 0 72.195 5.228 Z M 57.635 16.918 L 57.775 15.133 A 9.53 9.53 0 0 1 58.264 12.897 A 7.641 7.641 0 0 1 59.245 11.003 A 3.965 3.965 0 0 1 61.703 9.616 A 5.791 5.791 0 0 1 62.605 9.533 L 62.815 9.533 A 7.44 7.44 0 0 1 63.867 9.603 Q 65.098 9.779 65.752 10.406 A 2.229 2.229 0 0 1 65.755 10.408 A 6.197 6.197 0 0 1 66.556 11.155 A 4.574 4.574 0 0 1 67.208 12.088 A 24.243 24.243 0 0 1 67.423 12.513 Q 67.715 13.103 67.82 13.418 A 2.472 2.472 0 0 1 67.896 13.714 Q 67.971 14.087 67.995 14.643 Q 68.065 16.148 67.4 16.358 Q 67.89 19.683 66.805 21.643 Q 66.504 22.335 65.971 23.13 A 14.285 14.285 0 0 1 65.79 23.393 A 1.533 1.533 0 0 1 65.214 23.838 Q 64.967 23.953 64.651 24.018 A 4.189 4.189 0 0 1 64.04 24.093 A 19.481 19.481 0 0 1 63.142 24.074 Q 62.698 24.053 62.306 24.011 A 10.485 10.485 0 0 1 61.853 23.953 A 3.726 3.726 0 0 1 61.067 23.739 Q 60.696 23.595 60.299 23.369 A 8.002 8.002 0 0 1 59.805 23.061 Q 58.796 22.383 58.327 20.924 A 6.644 6.644 0 0 1 58.23 20.593 A 14.068 14.068 0 0 1 57.801 18.621 A 18.183 18.183 0 0 1 57.635 16.918 Z M 80.875 10.268 L 81.085 10.268 A 0.387 0.387 0 0 1 81.187 10.236 Q 81.597 10.159 82.73 10.618 Q 82.824 10.713 82.981 10.807 A 2.556 2.556 0 0 0 83.15 10.898 L 83.71 11.353 Q 83.812 11.455 83.84 11.65 A 1.126 1.126 0 0 1 83.85 11.808 L 83.85 14.888 Q 83.85 15.583 83.781 16.14 A 7.368 7.368 0 0 1 83.78 16.148 L 83.78 16.358 Q 83.681 17.711 83.924 22.266 A 259.587 259.587 0 0 0 83.955 22.833 A 3.031 3.031 0 0 1 83.967 22.983 Q 84.016 23.83 83.5 24.023 A 3.181 3.181 0 0 1 83.26 24.015 Q 82.881 23.986 82.74 23.858 A 0.3 0.3 0 0 1 82.73 23.848 Q 82.59 23.778 82.485 23.778 L 82.24 23.778 L 82.03 23.848 Q 81.935 23.848 81.699 23.721 A 3.593 3.593 0 0 1 81.645 23.691 A 1.521 1.521 0 0 1 81.503 23.601 Q 81.35 23.491 81.286 23.374 A 0.436 0.436 0 0 1 81.278 23.358 A 0.37 0.37 0 0 0 81.037 23.161 A 0.522 0.522 0 0 0 80.98 23.148 A 0.741 0.741 0 0 1 80.774 23.037 Q 80.584 22.888 80.56 22.623 A 27.151 27.151 0 0 1 80.393 22.296 Q 80.101 21.715 80.059 21.54 A 0.273 0.273 0 0 1 80.053 21.503 A 0.887 0.887 0 0 0 80.019 21.338 Q 79.987 21.233 79.93 21.118 L 79.755 18.073 Q 79.755 17.548 79.825 17.268 L 79.825 16.428 A 8.656 8.656 0 0 0 79.841 16.212 Q 79.862 15.898 79.882 15.361 A 81.731 81.731 0 0 0 79.895 15.011 A 37.796 37.796 0 0 1 79.915 14.52 Q 79.943 13.919 79.986 13.486 A 11.178 11.178 0 0 1 80 13.348 A 55.075 55.075 0 0 1 79.973 12.979 Q 79.93 12.37 79.93 12.123 A 4.564 4.564 0 0 1 79.932 11.977 Q 79.939 11.773 79.965 11.668 Q 79.58 11.283 80 10.618 Q 80.34 10.357 80.66 10.291 A 1.06 1.06 0 0 1 80.875 10.268 Z M 30.86 14.328 L 30.895 14.328 Q 32.013 14.119 33.41 14.118 A 12.456 12.456 0 0 1 33.415 14.118 L 37.615 14.328 L 38.21 14.398 A 2.821 2.821 0 0 1 39.018 14.51 A 2.336 2.336 0 0 1 39.768 14.888 Q 40.398 15.366 40.398 15.627 A 0.21 0.21 0 0 1 40.398 15.641 Q 40.38 15.903 40.345 16.218 Q 40.319 16.456 40.292 16.594 A 1.469 1.469 0 0 1 40.275 16.673 Q 40.17 16.988 39.505 17.128 L 38.945 17.233 Q 38.315 17.233 37.895 17.373 A 2.945 2.945 0 0 0 37.462 17.404 Q 37.202 17.442 36.985 17.531 Q 36.6 17.688 35.62 17.688 L 35.06 17.793 A 7.298 7.298 0 0 1 34.026 18.039 Q 33.474 18.127 32.96 18.108 A 2.041 2.041 0 0 1 32.167 18.268 A 2.145 2.145 0 0 1 32.085 18.266 Q 31.646 18.249 31.533 18.346 A 0.14 0.14 0 0 0 31.525 18.353 Q 31.22 18.536 30.198 18.56 A 13.816 13.816 0 0 1 29.88 18.563 A 0.622 0.622 0 0 1 29.707 18.533 Q 29.359 18.429 28.655 17.968 L 28.165 17.303 A 0.102 0.102 0 0 1 28.144 17.265 Q 28.102 17.149 28.129 16.758 A 6.293 6.293 0 0 1 28.13 16.743 A 0.655 0.655 0 0 1 28.072 16.596 Q 27.99 16.302 27.99 15.658 A 0.64 0.64 0 0 0 28.071 15.494 Q 28.163 15.224 28.165 14.701 A 6.068 6.068 0 0 0 28.165 14.678 A 3.616 3.616 0 0 1 29.35 14.407 A 4.261 4.261 0 0 1 29.618 14.398 A 14.426 14.426 0 0 0 30.077 14.392 Q 30.498 14.378 30.792 14.338 A 3.813 3.813 0 0 0 30.86 14.328 Z M 64.285 19.438 L 64.565 18.598 A 0.496 0.496 0 0 0 64.62 18.534 Q 64.706 18.411 64.656 18.289 A 0.308 0.308 0 0 0 64.635 18.248 A 5.061 5.061 0 0 0 64.906 17.295 Q 64.99 16.843 65.014 16.331 A 8.538 8.538 0 0 0 65.02 16.183 A 2.208 2.208 0 0 1 64.863 16.063 Q 64.653 15.886 64.6 15.728 A 9.003 9.003 0 0 1 64.518 15.487 Q 64.407 15.141 64.392 14.971 A 0.553 0.553 0 0 1 64.39 14.923 Q 64.154 14.755 64.113 14.293 A 2.015 2.015 0 0 1 64.11 14.258 A 15.158 15.158 0 0 0 64.095 14.061 Q 64.073 13.799 64.05 13.678 A 0.793 0.793 0 0 0 64.04 13.628 A 2.699 2.699 0 0 0 63.904 13.121 Q 63.571 12.259 62.694 12.332 A 1.766 1.766 0 0 0 62.675 12.333 A 1.049 1.049 0 0 0 62.055 12.588 Q 61.899 12.717 61.757 12.912 A 2.719 2.719 0 0 0 61.59 13.173 Q 60.962 14.394 61.047 16.326 A 11.045 11.045 0 0 0 61.048 16.341 A 39.603 39.603 0 0 0 61.098 17.244 Q 61.155 18.087 61.239 18.653 A 6.81 6.81 0 0 0 61.328 19.141 Q 61.52 19.998 62.01 20.628 Q 62.271 21.086 62.777 21.086 A 1.177 1.177 0 0 0 62.85 21.083 A 1.093 1.093 0 0 0 63.699 20.672 Q 64.022 20.302 64.238 19.598 A 5.787 5.787 0 0 0 64.285 19.438 Z M 81.26 2.008 L 81.365 2.008 A 9.257 9.257 0 0 1 82.45 2.068 Q 83.946 2.245 84.655 2.953 A 1.641 1.641 0 0 1 84.616 3.272 Q 84.479 3.947 83.85 5.368 Q 83.729 5.881 83.479 6.212 A 1.557 1.557 0 0 1 83.395 6.313 L 82.94 6.768 Q 82.765 6.873 82.59 6.873 A 3.114 3.114 0 0 1 82.247 6.94 Q 81.232 7.075 80.63 6.383 A 1.067 1.067 0 0 0 80.477 6.2 A 0.857 0.857 0 0 0 80.298 6.068 A 0.329 0.329 0 0 1 80.192 5.971 Q 80.074 5.81 80 5.438 A 3.454 3.454 0 0 1 79.866 5.23 Q 79.746 5.027 79.705 4.877 A 0.537 0.537 0 0 1 79.685 4.738 A 5.412 5.412 0 0 1 79.682 4.564 Q 79.682 2.546 81.26 2.008 Z" vector-effect="non-scaling-stroke"/></g></svg>